<svg width="16" height="16" viewBox="0 0 16 16" fill="none" xmlns="http://www.w3.org/2000/svg">
<path d="M15.6351 0.365871C15.5195 0.2502 15.3821 0.158445 15.231 0.0958437C15.0799 0.0332427 14.9179 0.00102196 14.7543 0.00102196C14.5907 0.00102196 14.4287 0.0332427 14.2776 0.0958437C14.1265 0.158445 13.9892 0.2502 13.8735 0.365871L8.00215 6.23685L2.13005 0.365871C2.01438 0.250013 1.87702 0.158071 1.72582 0.095295C1.57461 0.0325189 1.41253 0.000138128 1.24881 4.40946e-07C1.08508 -0.000137246 0.92294 0.0319712 0.771629 0.094493C0.620319 0.157015 0.482805 0.248725 0.36694 0.364388C0.251076 0.48005 0.15913 0.617401 0.0963497 0.768596C0.0335703 0.919791 0.00118446 1.08187 0.00104713 1.24558C0.000909805 1.40929 0.033021 1.57142 0.0955467 1.72272C0.158072 1.87402 0.249788 2.01153 0.365458 2.12739L6.24052 7.99836L0.365458 13.8701C0.131459 14.1041 0 14.4214 0 14.7523C0 15.0832 0.131459 15.4006 0.365458 15.6346C0.599459 15.8685 0.91683 16 1.24776 16C1.57868 16 1.89605 15.8685 2.13005 15.6346L8.00215 9.75988L13.8735 15.6346C13.9892 15.7502 14.1265 15.842 14.2776 15.9046C14.4288 15.9672 14.5907 15.9994 14.7543 15.9994C14.9179 15.9994 15.0799 15.9672 15.231 15.9046C15.3821 15.842 15.5195 15.7502 15.6351 15.6346C15.7508 15.5189 15.8426 15.3816 15.9052 15.2305C15.9678 15.0793 16 14.9174 16 14.7538C16 14.5902 15.9678 14.4283 15.9052 14.2771C15.8426 14.126 15.7508 13.9887 15.6351 13.873L9.76303 8.00133L15.6351 2.13035C15.7508 2.01469 15.8426 1.87738 15.9052 1.72626C15.9678 1.57514 16 1.41317 16 1.24959C16 1.08602 15.9678 0.924048 15.9052 0.772926C15.8426 0.621805 15.7508 0.484494 15.6351 0.368836V0.365871Z" fill="#313131"/>
</svg>
