<svg width="17" height="17" viewBox="0 0 17 17" fill="none" xmlns="http://www.w3.org/2000/svg">
<path d="M3.46394 5.75781C3.31396 5.75781 3.17012 5.81738 3.06406 5.92344C2.95801 6.02949 2.89844 6.17333 2.89844 6.32331V14.6396C2.89844 15.138 3.09644 15.6161 3.44891 15.9686C3.80138 16.3211 4.27945 16.5191 4.77792 16.5191H12.2626C12.761 16.5191 13.2391 16.3211 13.5915 15.9686C13.944 15.6161 14.142 15.138 14.142 14.6396V6.32331C14.142 6.17333 14.0824 6.02949 13.9764 5.92344C13.8703 5.81738 13.7265 5.75781 13.5765 5.75781C13.4265 5.75781 13.2827 5.81738 13.1766 5.92344C13.0706 6.02949 13.011 6.17333 13.011 6.32331V14.6396C13.011 14.8381 12.9322 15.0285 12.7918 15.1688C12.6514 15.3092 12.4611 15.3881 12.2626 15.3881H4.77792C4.57942 15.3881 4.38903 15.3092 4.24866 15.1688C4.1083 15.0285 4.02944 14.8381 4.02944 14.6396V6.32331C4.02944 6.17333 3.96987 6.02949 3.86381 5.92344C3.75776 5.81738 3.61392 5.75781 3.46394 5.75781Z" fill="#FF4A3E" stroke="#FF4A3E" stroke-width="0.2"/>
<path d="M15.4639 3.40341H11.7382V2.1643C11.7438 2.01548 11.7197 1.86703 11.6673 1.72762C11.6149 1.58821 11.5353 1.46062 11.4332 1.35226C11.331 1.24391 11.2083 1.15697 11.0722 1.09649C10.9361 1.03602 10.7894 1.00321 10.6405 1H6.48235C6.18459 1 5.89903 1.11832 5.68848 1.32886C5.47794 1.53941 5.35964 1.82497 5.35964 2.12273V3.40341H1.63397C1.55452 3.39372 1.47392 3.401 1.39749 3.42478C1.32106 3.44857 1.25055 3.48831 1.19062 3.54137C1.1307 3.59444 1.0827 3.65965 1.04984 3.73263C1.01699 3.80562 1 3.88471 1 3.96475C1 4.04479 1.01699 4.12393 1.04984 4.19692C1.0827 4.26991 1.1307 4.33507 1.19062 4.38813C1.25055 4.44119 1.32106 4.48094 1.39749 4.50472C1.47392 4.5285 1.55452 4.53583 1.63397 4.52614H15.4639C15.5434 4.53583 15.624 4.5285 15.7004 4.50472C15.7768 4.48094 15.8473 4.44119 15.9073 4.38813C15.9672 4.33507 16.0152 4.26991 16.048 4.19692C16.0809 4.12393 16.0979 4.04479 16.0979 3.96475C16.0979 3.88471 16.0809 3.80562 16.048 3.73263C16.0152 3.65965 15.9672 3.59444 15.9073 3.54137C15.8473 3.48831 15.7768 3.44857 15.7004 3.42478C15.624 3.401 15.5434 3.39372 15.4639 3.40341ZM6.4075 2.1643H10.5656V3.44498H6.4075V2.1643Z" fill="#FF4A3E" stroke="#FF4A3E" stroke-width="0.2"/>
<path d="M9.07638 13.4415V8.20222C9.07638 8.05224 9.0168 7.9084 8.91075 7.80234C8.8047 7.69629 8.66086 7.63672 8.51088 7.63672C8.36089 7.63672 8.21705 7.69629 8.111 7.80234C8.00495 7.9084 7.94538 8.05224 7.94538 8.20222V13.4415C7.94425 13.516 7.95811 13.5901 7.98613 13.6592C8.01416 13.7283 8.05578 13.7911 8.10851 13.8438C8.16125 13.8966 8.22403 13.9382 8.29315 13.9662C8.36226 13.9942 8.4363 14.0081 8.51088 14.007C8.65878 14.0049 8.80016 13.9458 8.90552 13.8419C9.01089 13.7381 9.0721 13.5976 9.07638 13.4498V13.4415Z" fill="#FF4A3E" stroke="#FF4A3E" stroke-width="0.2"/>
<path d="M11.139 13.4396V8.20038C11.1487 8.12093 11.1414 8.04032 11.1176 7.9639C11.0939 7.88747 11.0541 7.81693 11.0011 7.757C10.948 7.69708 10.8828 7.64911 10.8098 7.61625C10.7369 7.58339 10.6577 7.56641 10.5777 7.56641C10.4976 7.56641 10.4185 7.58339 10.3455 7.61625C10.2725 7.64911 10.2074 7.69708 10.1543 7.757C10.1012 7.81693 10.0615 7.88747 10.0377 7.9639C10.014 8.04032 10.0067 8.12093 10.0163 8.20038V13.4812C10.0042 13.56 10.0089 13.6406 10.0301 13.7175C10.0513 13.7944 10.0885 13.8659 10.1394 13.9274C10.1902 13.9889 10.2534 14.0389 10.3249 14.0743C10.3965 14.1096 10.4746 14.1293 10.5544 14.1323C10.6341 14.1352 10.7135 14.1213 10.7874 14.0914C10.8614 14.0614 10.9281 14.0162 10.9834 13.9586C11.0386 13.9011 11.081 13.8325 11.1078 13.7574C11.1347 13.6822 11.1453 13.6023 11.139 13.5228V13.4396Z" fill="#FF4A3E" stroke="#FF4A3E" stroke-width="0.2"/>
<path d="M7.00628 13.4415V8.20222C7.00628 8.05224 6.94671 7.9084 6.84066 7.80234C6.7346 7.69629 6.59076 7.63672 6.44078 7.63672C6.2908 7.63672 6.14696 7.69629 6.04091 7.80234C5.93485 7.9084 5.87526 8.05224 5.87526 8.20222V13.483C5.87074 13.6338 5.92582 13.7804 6.02855 13.8909C6.13128 14.0014 6.27339 14.067 6.42413 14.0735C6.49841 14.0757 6.5724 14.0633 6.64186 14.0369C6.71132 14.0105 6.77489 13.9707 6.82896 13.9197C6.88302 13.8687 6.92649 13.8076 6.95692 13.7398C6.98735 13.672 7.00413 13.5989 7.00628 13.5246V13.4415Z" fill="#FF4A3E" stroke="#FF4A3E" stroke-width="0.2"/>
</svg>
