<svg width="30" height="26" viewBox="0 0 30 26" fill="none" xmlns="http://www.w3.org/2000/svg">
<g clip-path="url(#clip0_1088_7584)">
<path d="M17.5197 17.4927V8.11247C17.3295 8.11247 17.181 8.11247 17.0342 8.11247C15.8661 8.11247 14.698 8.08971 13.5299 8.11897C12.512 8.14498 11.6509 7.60697 11.6809 6.31965C11.7076 5.18186 11.6859 4.04408 11.6859 2.90629C11.6859 2.76001 11.6859 2.61535 11.6859 2.42192H11.1903C8.65892 2.42192 6.12916 2.42192 3.59773 2.42192C2.72166 2.42192 2.46134 2.67386 2.46134 3.54183C2.45967 9.8419 2.46134 16.1404 2.46134 22.4404C2.46134 23.336 2.71332 23.5815 3.61776 23.5815C6.77495 23.5815 9.93047 23.5815 13.0877 23.5815H13.645C13.4264 24.3877 13.111 25.1597 13.4631 25.9984H13.081C9.8971 25.9984 6.71321 26.0017 3.52764 25.9968C2.36623 25.9952 1.37835 25.5937 0.662476 24.677C0.183558 24.0642 0 23.3555 0 22.5851C0.00500612 16.1907 0.00166871 9.79639 0.00667482 3.40204C0.00667482 3.10622 0.0183558 2.79902 0.0984537 2.51782C0.535655 0.970434 1.7755 0.0211966 3.42419 0.0114441C6.24597 -0.00643534 9.06942 0.00169169 11.8929 0.00981872C12.7105 0.0114441 13.4781 0.229249 14.0705 0.79489C15.7576 2.40729 17.4246 4.0392 19.09 5.67274C19.7191 6.28876 19.9861 7.05596 19.9861 7.92067C19.9828 10.2775 19.9861 12.6344 19.9828 14.9928C19.9828 15.105 19.9594 15.2529 19.886 15.326C19.1384 16.0672 18.3791 16.7986 17.6232 17.5317C17.5898 17.5203 17.5565 17.5073 17.5231 17.4959L17.5197 17.4927Z" fill="#7242FD"/>
<path d="M26.5936 18.2939C25.8277 19.0448 25.0251 19.8315 24.2207 20.6166C22.8741 21.9283 21.5208 23.2335 20.1808 24.5501C19.827 24.8979 19.4282 25.1304 18.9376 25.2441C18.0465 25.4506 17.1621 25.6846 16.2744 25.8976C15.3599 26.117 14.8576 25.6342 15.0762 24.7451C15.2915 23.8772 15.4867 23.0043 15.7471 22.151C15.8539 21.8015 16.0458 21.4374 16.3044 21.1806C18.427 19.0741 20.573 16.9903 22.7122 14.9001C22.789 14.8253 22.8741 14.7603 22.9242 14.718C24.1573 15.9192 25.3705 17.1025 26.592 18.2923L26.5936 18.2939Z" fill="#B79EFD"/>
<path d="M27.9219 16.9888C26.6754 15.7827 25.4656 14.6125 24.2207 13.408C24.7113 12.9383 25.2002 12.4377 25.7275 11.9777C26.5936 11.2235 27.5815 11.1829 28.4842 11.8899C28.9114 12.2247 29.3053 12.623 29.6373 13.0504C30.1997 13.7721 30.0979 14.7555 29.4004 15.5536C29.0333 15.9745 28.6027 16.3451 28.1989 16.7352C28.1021 16.8295 27.9987 16.9173 27.9219 16.9872V16.9888Z" fill="#7242FD"/>
</g>
<defs>
<clipPath id="clip0_1088_7584">
<rect width="30" height="26" fill="white"/>
</clipPath>
</defs>
</svg>
