<svg width="70" height="70" viewBox="0 0 70 70" fill="none" xmlns="http://www.w3.org/2000/svg">
<path d="M49.2558 24.0824C48.9397 23.7584 48.564 23.5013 48.1503 23.3256C47.7366 23.1499 47.2929 23.0592 46.8448 23.0586C46.3963 23.0573 45.9521 23.1471 45.5381 23.3229C45.1242 23.4987 44.7487 23.7569 44.4337 24.0824L30.173 38.5493L25.6059 33.8585C24.9697 33.2019 24.1038 32.83 23.1987 32.8245C22.2936 32.819 21.4235 33.1803 20.7796 33.8291C20.1358 34.4778 19.7711 35.3608 19.7657 36.2838C19.7603 37.2068 20.1147 38.0942 20.7508 38.7507L27.729 45.917C28.0449 46.2408 28.4202 46.4979 28.8337 46.6736C29.2471 46.8493 29.6904 46.9402 30.1383 46.9409C30.5862 46.9417 31.0299 46.8524 31.4439 46.6782C31.8579 46.5039 32.2341 46.2481 32.5511 45.9254L49.2394 29.0082C49.8736 28.3565 50.2316 27.4769 50.2362 26.5588C50.2408 25.6407 49.8917 24.7574 49.2641 24.0992L49.2558 24.0824Z" fill="#158D02"/>
<path d="M67.2492 21.3903C63.6882 12.9988 57.007 6.31817 48.6146 2.75761C44.3088 0.929937 39.6777 -0.00805234 35 5.20723e-05C15.7022 0.00703322 0 15.7076 0 35.0035C0 54.2994 15.7022 70.0001 35 70.0001C54.2978 70.0001 70 54.2994 70 35.0035C70.0105 30.3267 69.0748 25.6961 67.2492 21.3903ZM35 64.2127C18.8929 64.2127 5.78795 51.1091 5.78795 35.0035C5.78795 18.898 18.8929 5.79441 35 5.79441C51.1071 5.79441 64.2121 18.898 64.2121 35.0035C64.2121 51.1091 51.1071 64.2127 35 64.2127Z" fill="#158D02"/>
</svg>
